<svg xmlns="http://www.w3.org/2000/svg" version="1.1" xmlns:xlink="http://www.w3.org/1999/xlink" xmlns:svgjs="http://svgjs.dev/svgjs" width="1000" height="308" viewBox="0 0 1000 308"><g transform="matrix(1,0,0,1,0.16994382022460286,-0.35238919462881313)"><svg viewBox="0 0 356 110" data-background-color="#ffffff" preserveAspectRatio="xMidYMid meet" height="308" width="1000" xmlns="http://www.w3.org/2000/svg" xmlns:xlink="http://www.w3.org/1999/xlink"><g id="tight-bounds" transform="matrix(1,0,0,1,-0.06049999999996203,0.1258532837960047)"><svg viewBox="0 0 356.12052 109.74829343240799" height="109.74829343240799" width="356.12052"><g><svg viewBox="0 0 356.12052 109.74829343240799" height="109.74829343240799" width="356.12052"><g><svg viewBox="0 0 356.12052 109.74829343240799" height="109.74829343240799" width="356.12052"><g><path d="M0 109.748v-109.748h356.121v109.748z" fill="#6b7280" stroke="transparent" stroke-width="0" rx="0%" data-fill-palette-color="tertiary"></path><path d="M3.283 106.465v-103.182h349.554v103.182z" fill="#ffffff" stroke="transparent" stroke-width="0" rx="0%" data-fill-palette-color="quaternary"></path><path d="M9.85 99.898v-90.048h336.421v90.048z" fill="#6b7280" stroke="transparent" stroke-width="0" data-fill-palette-color="tertiary"></path></g><g transform="matrix(1,0,0,1,19.69974,19.69974)"><svg viewBox="0 0 316.72104 70.348813432408" height="70.348813432408" width="316.72104" id="textblock"><g><svg viewBox="0 0 316.72104 39.42041621286032" height="39.42041621286032" width="316.72104"><g transform="matrix(1,0,0,1,0,0)"><svg width="316.72104" viewBox="0.6500000357627869 -41.04999923706055 338.2200012207031 42.099998474121094" height="39.42041621286032" data-palette-color="#ffffff"><path d="M5 1.05L0.65 1.05 0.65-5.2Q2-5.2 2.95-5.35 3.9-5.5 4.45-5.93 5-6.35 5.25-7.18 5.5-8 5.5-9.3L5.5-9.3 5.5-40.5 14.45-40.5 14.45-8.9Q14.45-5.6 13.63-3.38 12.8-1.15 10.75-0.05 8.7 1.05 5 1.05L5 1.05ZM32.05 0.6L32.05 0.6Q27.5 0.6 24.85-1 22.2-2.6 21.05-5.6 19.9-8.6 19.9-12.75L19.9-12.75 19.9-27.8Q19.9-32 21.05-34.95 22.2-37.9 24.85-39.48 27.5-41.05 32.05-41.05L32.05-41.05Q36.65-41.05 39.32-39.48 42-37.9 43.15-34.95 44.3-32 44.3-27.8L44.3-27.8 44.3-12.75Q44.3-8.6 43.15-5.6 42-2.6 39.32-1 36.65 0.6 32.05 0.6ZM32.05-5.75L32.05-5.75Q33.45-5.75 34.1-6.45 34.75-7.15 34.95-8.25 35.15-9.35 35.15-10.5L35.15-10.5 35.15-30Q35.15-31.2 34.95-32.27 34.75-33.35 34.1-34.05 33.45-34.75 32.05-34.75L32.05-34.75Q30.75-34.75 30.1-34.05 29.45-33.35 29.25-32.27 29.05-31.2 29.05-30L29.05-30 29.05-10.5Q29.05-9.35 29.22-8.25 29.4-7.15 30.02-6.45 30.65-5.75 32.05-5.75ZM60.5 0.6L60.5 0.6Q56.7 0.6 54.15-0.75 51.6-2.1 50.3-4.93 49-7.75 48.85-12.25L48.85-12.25 56.5-13.4Q56.55-10.8 56.97-9.2 57.4-7.6 58.17-6.9 58.95-6.2 60.05-6.2L60.05-6.2Q61.45-6.2 61.87-7.15 62.3-8.1 62.3-9.15L62.3-9.15Q62.3-11.65 61.1-13.38 59.9-15.1 57.85-16.85L57.85-16.85 54.35-19.9Q52.05-21.85 50.47-24.33 48.9-26.8 48.9-30.45L48.9-30.45Q48.9-35.6 51.95-38.33 55-41.05 60.25-41.05L60.25-41.05Q63.5-41.05 65.47-39.95 67.45-38.85 68.47-37.08 69.5-35.3 69.87-33.33 70.25-31.35 70.3-29.55L70.3-29.55 62.6-28.6Q62.55-30.4 62.37-31.73 62.2-33.05 61.65-33.77 61.1-34.5 59.95-34.5L59.95-34.5Q58.7-34.5 58.12-33.45 57.55-32.4 57.55-31.35L57.55-31.35Q57.55-29.1 58.62-27.68 59.7-26.25 61.45-24.7L61.45-24.7 64.8-21.75Q67.45-19.5 69.27-16.65 71.09-13.8 71.09-9.6L71.09-9.6Q71.09-6.75 69.8-4.42 68.5-2.1 66.12-0.75 63.75 0.6 60.5 0.6ZM83.74 0L74.79 0 74.79-40.5 83.74-40.5 83.74-24.1 89.99-24.1 89.99-40.5 98.99-40.5 98.99 0 89.99 0 89.99-17.7 83.74-17.7 83.74 0ZM116.84 0.6L116.84 0.6Q112.19 0.6 109.57-0.93 106.94-2.45 105.89-5.38 104.84-8.3 104.84-12.55L104.84-12.55 104.84-40.5 113.69-40.5 113.69-11.2Q113.69-9.95 113.89-8.7 114.09-7.45 114.77-6.65 115.44-5.85 116.84-5.85L116.84-5.85Q118.29-5.85 118.94-6.65 119.59-7.45 119.77-8.7 119.94-9.95 119.94-11.2L119.94-11.2 119.94-40.5 128.84-40.5 128.84-12.55Q128.84-8.3 127.77-5.38 126.69-2.45 124.09-0.93 121.49 0.6 116.84 0.6ZM140.64 0L132.19 0 139.84-40.5 150.04-40.5 157.59 0 149.34 0 147.99-8.55 142.04-8.55 140.64 0ZM144.99-29.7L142.84-13.9 147.14-13.9 144.99-29.7ZM172.04 0.6L172.04 0.6Q168.24 0.6 165.69-0.75 163.14-2.1 161.84-4.93 160.54-7.75 160.39-12.25L160.39-12.25 168.04-13.4Q168.09-10.8 168.51-9.2 168.94-7.6 169.71-6.9 170.49-6.2 171.59-6.2L171.59-6.2Q172.99-6.2 173.41-7.15 173.84-8.1 173.84-9.15L173.84-9.15Q173.84-11.65 172.64-13.38 171.44-15.1 169.39-16.85L169.39-16.85 165.89-19.9Q163.59-21.85 162.01-24.33 160.44-26.8 160.44-30.45L160.44-30.45Q160.44-35.6 163.49-38.33 166.54-41.05 171.79-41.05L171.79-41.05Q175.04-41.05 177.01-39.95 178.99-38.85 180.01-37.08 181.04-35.3 181.41-33.33 181.79-31.35 181.84-29.55L181.84-29.55 174.14-28.6Q174.09-30.4 173.91-31.73 173.74-33.05 173.19-33.77 172.64-34.5 171.49-34.5L171.49-34.5Q170.24-34.5 169.66-33.45 169.09-32.4 169.09-31.35L169.09-31.35Q169.09-29.1 170.16-27.68 171.24-26.25 172.99-24.7L172.99-24.7 176.34-21.75Q178.99-19.5 180.81-16.65 182.64-13.8 182.64-9.6L182.64-9.6Q182.64-6.75 181.34-4.42 180.04-2.1 177.66-0.75 175.29 0.6 172.04 0.6ZM193.08 0L184.63 0 192.28-40.5 202.48-40.5 210.03 0 201.78 0 200.43-8.55 194.48-8.55 193.08 0ZM197.43-29.7L195.28-13.9 199.58-13.9 197.43-29.7ZM231.98 0L213.73 0 213.73-40.5 222.68-40.5 222.68-6.05 231.98-6.05 231.98 0ZM246.83 0.6L246.83 0.6Q242.23 0.6 239.55-1.07 236.88-2.75 235.78-5.78 234.68-8.8 234.68-12.9L234.68-12.9 234.68-27.5Q234.68-31.7 235.78-34.73 236.88-37.75 239.55-39.4 242.23-41.05 246.83-41.05L246.83-41.05Q251.33-41.05 253.85-39.58 256.38-38.1 257.43-35.45 258.48-32.8 258.48-29.35L258.48-29.35 258.48-25.85 249.73-25.85 249.73-29.9Q249.73-31.1 249.6-32.2 249.48-33.3 248.88-34.02 248.28-34.75 246.83-34.75L246.83-34.75Q245.43-34.75 244.75-34 244.08-33.25 243.9-32.13 243.73-31 243.73-29.75L243.73-29.75 243.73-10.7Q243.73-9.35 243.95-8.22 244.18-7.1 244.85-6.43 245.53-5.75 246.83-5.75L246.83-5.75Q248.23-5.75 248.83-6.48 249.43-7.2 249.58-8.35 249.73-9.5 249.73-10.7L249.73-10.7 249.73-14.95 258.48-14.95 258.48-11.45Q258.48-8 257.45-5.28 256.43-2.55 253.9-0.98 251.38 0.6 246.83 0.6ZM281.68 0L263.38 0 263.38-40.5 281.57-40.5 281.57-34.4 272.32-34.4 272.32-24.35 279.38-24.35 279.38-18.15 272.32-18.15 272.32-6.05 281.68-6.05 281.68 0ZM296.07 0L285.72 0 285.72-40.5 295.97-40.5Q301.27-40.5 304.22-39.18 307.17-37.85 308.37-35.02 309.57-32.2 309.57-27.7L309.57-27.7 309.57-13Q309.57-8.45 308.37-5.58 307.17-2.7 304.25-1.35 301.32 0 296.07 0L296.07 0ZM294.67-34.25L294.67-6.2 296.07-6.2Q298.12-6.2 299.02-6.8 299.92-7.4 300.15-8.6 300.37-9.8 300.37-11.6L300.37-11.6 300.37-29.25Q300.37-31.05 300.1-32.15 299.82-33.25 298.92-33.75 298.02-34.25 296.02-34.25L296.02-34.25 294.67-34.25ZM326.62 0.6L326.62 0.6Q322.07 0.6 319.42-1 316.77-2.6 315.62-5.6 314.47-8.6 314.47-12.75L314.47-12.75 314.47-27.8Q314.47-32 315.62-34.95 316.77-37.9 319.42-39.48 322.07-41.05 326.62-41.05L326.62-41.05Q331.22-41.05 333.9-39.48 336.57-37.9 337.72-34.95 338.87-32 338.87-27.8L338.87-27.8 338.87-12.75Q338.87-8.6 337.72-5.6 336.57-2.6 333.9-1 331.22 0.6 326.62 0.6ZM326.62-5.75L326.62-5.75Q328.02-5.75 328.67-6.45 329.32-7.15 329.52-8.25 329.72-9.35 329.72-10.5L329.72-10.5 329.72-30Q329.72-31.2 329.52-32.27 329.32-33.35 328.67-34.05 328.02-34.75 326.62-34.75L326.62-34.75Q325.32-34.75 324.67-34.05 324.02-33.35 323.82-32.27 323.62-31.2 323.62-30L323.62-30 323.62-10.5Q323.62-9.35 323.8-8.25 323.97-7.15 324.6-6.45 325.22-5.75 326.62-5.75Z" opacity="1" transform="matrix(1,0,0,1,0,0)" fill="#ffffff" class="undefined-text-0" data-fill-palette-color="quaternary" id="text-0"></path></svg></g></svg></g><g transform="matrix(1,0,0,1,0,45.98699621286032)"><svg viewBox="0 0 316.72104 24.361817219547675" height="24.361817219547675" width="316.72104"><g transform="matrix(1,0,0,1,0,0)"><svg width="316.72104" viewBox="1.850000023841858 -37.099998474121094 608.4300537109375 46.79999923706055" height="24.361817219547675" data-palette-color="#ffffff"><path d="M50.2-35L53.75-35 41.95 0 38.05 0 27.8-29.85 17.5 0 13.65 0 1.85-35 5.65-35 15.75-4.9 26.2-35 29.65-35 39.95-4.75 50.2-35ZM100.12-13.15L100.07-12.05 78.07-12.05Q78.37-7.95 81.22-5.43 84.07-2.9 88.42-2.9L88.42-2.9Q90.87-2.9 92.92-3.78 94.97-4.65 96.47-6.35L96.47-6.35 98.47-4.05Q96.72-1.95 94.09-0.85 91.47 0.25 88.32 0.25L88.32 0.25Q84.27 0.25 81.14-1.48 78.02-3.2 76.27-6.25 74.52-9.3 74.52-13.15L74.52-13.15Q74.52-17 76.19-20.05 77.87-23.1 80.79-24.8 83.72-26.5 87.37-26.5L87.37-26.5Q91.02-26.5 93.92-24.8 96.82-23.1 98.47-20.08 100.12-17.05 100.12-13.15L100.12-13.15ZM87.37-23.45Q83.57-23.45 80.99-21.03 78.42-18.6 78.07-14.7L78.07-14.7 96.72-14.7Q96.37-18.6 93.79-21.03 91.22-23.45 87.37-23.45L87.37-23.45ZM140.34-26.5Q144.04-26.5 147.04-24.83 150.04-23.15 151.74-20.1 153.44-17.05 153.44-13.15L153.44-13.15Q153.44-9.25 151.74-6.2 150.04-3.15 147.04-1.45 144.04 0.25 140.34 0.25L140.34 0.25Q137.04 0.25 134.41-1.15 131.79-2.55 130.19-5.2L130.19-5.2 130.19 0 126.79 0 126.79-37.1 130.34-37.1 130.34-21.3Q131.99-23.85 134.56-25.18 137.14-26.5 140.34-26.5L140.34-26.5ZM140.09-2.9Q142.84-2.9 145.09-4.17 147.34-5.45 148.61-7.8 149.89-10.15 149.89-13.15L149.89-13.15Q149.89-16.15 148.61-18.5 147.34-20.85 145.09-22.13 142.84-23.4 140.09-23.4L140.09-23.4Q137.29-23.4 135.06-22.13 132.84-20.85 131.56-18.5 130.29-16.15 130.29-13.15L130.29-13.15Q130.29-10.15 131.56-7.8 132.84-5.45 135.06-4.17 137.29-2.9 140.09-2.9L140.09-2.9ZM233.08-37.1L236.63-37.1 236.63 0 233.23 0 233.23-5.2Q231.63-2.55 229-1.15 226.38 0.25 223.08 0.25L223.08 0.25Q219.38 0.25 216.38-1.45 213.38-3.15 211.68-6.2 209.98-9.25 209.98-13.15L209.98-13.15Q209.98-17.05 211.68-20.1 213.38-23.15 216.38-24.83 219.38-26.5 223.08-26.5L223.08-26.5Q226.28-26.5 228.85-25.18 231.43-23.85 233.08-21.3L233.08-21.3 233.08-37.1ZM223.38-2.9Q226.13-2.9 228.35-4.17 230.58-5.45 231.85-7.8 233.13-10.15 233.13-13.15L233.13-13.15Q233.13-16.15 231.85-18.5 230.58-20.85 228.35-22.13 226.13-23.4 223.38-23.4L223.38-23.4Q220.58-23.4 218.35-22.13 216.13-20.85 214.85-18.5 213.58-16.15 213.58-13.15L213.58-13.15Q213.58-10.15 214.85-7.8 216.13-5.45 218.35-4.17 220.58-2.9 223.38-2.9L223.38-2.9ZM288.9-13.15L288.85-12.05 266.85-12.05Q267.15-7.95 270-5.43 272.85-2.9 277.2-2.9L277.2-2.9Q279.65-2.9 281.7-3.78 283.75-4.65 285.25-6.35L285.25-6.35 287.25-4.05Q285.5-1.95 282.87-0.85 280.25 0.25 277.1 0.25L277.1 0.25Q273.05 0.25 269.92-1.48 266.8-3.2 265.05-6.25 263.3-9.3 263.3-13.15L263.3-13.15Q263.3-17 264.97-20.05 266.65-23.1 269.57-24.8 272.5-26.5 276.15-26.5L276.15-26.5Q279.8-26.5 282.7-24.8 285.6-23.1 287.25-20.08 288.9-17.05 288.9-13.15L288.9-13.15ZM276.15-23.45Q272.35-23.45 269.77-21.03 267.2-18.6 266.85-14.7L266.85-14.7 285.5-14.7Q285.15-18.6 282.57-21.03 280-23.45 276.15-23.45L276.15-23.45ZM333.67-26.3L337.17-26.3 325.47 0 321.82 0 310.17-26.3 313.87-26.3 323.72-3.9 333.67-26.3ZM383.79-13.15L383.74-12.05 361.74-12.05Q362.04-7.95 364.89-5.43 367.74-2.9 372.09-2.9L372.09-2.9Q374.54-2.9 376.59-3.78 378.64-4.65 380.14-6.35L380.14-6.35 382.14-4.05Q380.39-1.95 377.76-0.85 375.14 0.25 371.99 0.25L371.99 0.25Q367.94 0.25 364.81-1.48 361.69-3.2 359.94-6.25 358.19-9.3 358.19-13.15L358.19-13.15Q358.19-17 359.86-20.05 361.54-23.1 364.46-24.8 367.39-26.5 371.04-26.5L371.04-26.5Q374.69-26.5 377.59-24.8 380.49-23.1 382.14-20.08 383.79-17.05 383.79-13.15L383.79-13.15ZM371.04-23.45Q367.24-23.45 364.66-21.03 362.09-18.6 361.74-14.7L361.74-14.7 380.39-14.7Q380.04-18.6 377.46-21.03 374.89-23.45 371.04-23.45L371.04-23.45ZM410.46 0L410.46-37.1 414.01-37.1 414.01 0 410.46 0ZM454.08 0.25Q450.28 0.25 447.23-1.48 444.18-3.2 442.43-6.25 440.68-9.3 440.68-13.15L440.68-13.15Q440.68-17 442.43-20.05 444.18-23.1 447.23-24.8 450.28-26.5 454.08-26.5L454.08-26.5Q457.88-26.5 460.93-24.8 463.98-23.1 465.7-20.05 467.43-17 467.43-13.15L467.43-13.15Q467.43-9.3 465.7-6.25 463.98-3.2 460.93-1.48 457.88 0.25 454.08 0.25L454.08 0.25ZM454.08-2.9Q456.88-2.9 459.1-4.17 461.33-5.45 462.58-7.8 463.83-10.15 463.83-13.15L463.83-13.15Q463.83-16.15 462.58-18.5 461.33-20.85 459.1-22.13 456.88-23.4 454.08-23.4L454.08-23.4Q451.28-23.4 449.05-22.13 446.83-20.85 445.55-18.5 444.28-16.15 444.28-13.15L444.28-13.15Q444.28-10.15 445.55-7.8 446.83-5.45 449.05-4.17 451.28-2.9 454.08-2.9L454.08-2.9ZM507.64-26.5Q511.34-26.5 514.34-24.83 517.34-23.15 519.04-20.1 520.74-17.05 520.74-13.15L520.74-13.15Q520.74-9.2 519.04-6.15 517.34-3.1 514.37-1.43 511.39 0.25 507.64 0.25L507.64 0.25Q504.44 0.25 501.87-1.07 499.29-2.4 497.64-4.95L497.64-4.95 497.64 9.7 494.09 9.7 494.09-26.3 497.49-26.3 497.49-21.1Q499.09-23.7 501.72-25.1 504.34-26.5 507.64-26.5L507.64-26.5ZM507.39-2.9Q510.14-2.9 512.39-4.17 514.64-5.45 515.92-7.8 517.19-10.15 517.19-13.15L517.19-13.15Q517.19-16.15 515.92-18.48 514.64-20.8 512.39-22.1 510.14-23.4 507.39-23.4L507.39-23.4Q504.59-23.4 502.37-22.1 500.14-20.8 498.87-18.48 497.59-16.15 497.59-13.15L497.59-13.15Q497.59-10.15 498.87-7.8 500.14-5.45 502.37-4.17 504.59-2.9 507.39-2.9L507.39-2.9ZM570.36-13.15L570.31-12.05 548.31-12.05Q548.61-7.95 551.46-5.43 554.31-2.9 558.66-2.9L558.66-2.9Q561.11-2.9 563.16-3.78 565.21-4.65 566.71-6.35L566.71-6.35 568.71-4.05Q566.96-1.95 564.34-0.85 561.71 0.25 558.56 0.25L558.56 0.25Q554.51 0.25 551.39-1.48 548.26-3.2 546.51-6.25 544.76-9.3 544.76-13.15L544.76-13.15Q544.76-17 546.44-20.05 548.11-23.1 551.04-24.8 553.96-26.5 557.61-26.5L557.61-26.5Q561.26-26.5 564.16-24.8 567.06-23.1 568.71-20.08 570.36-17.05 570.36-13.15L570.36-13.15ZM557.61-23.45Q553.81-23.45 551.24-21.03 548.66-18.6 548.31-14.7L548.31-14.7 566.96-14.7Q566.61-18.6 564.04-21.03 561.46-23.45 557.61-23.45L557.61-23.45ZM600.43-21.15Q601.68-23.8 604.16-25.15 606.63-26.5 610.28-26.5L610.28-26.5 610.28-23.05 609.43-23.1Q605.28-23.1 602.93-20.55 600.58-18 600.58-13.4L600.58-13.4 600.58 0 597.03 0 597.03-26.3 600.43-26.3 600.43-21.15Z" opacity="1" transform="matrix(1,0,0,1,0,0)" fill="#ffffff" class="undefined-text-1" data-fill-palette-color="quaternary" id="text-1"></path></svg></g></svg></g></svg></g></svg></g><g></g></svg></g><defs></defs></svg><rect width="356.12052" height="109.74829343240799" fill="none" stroke="none" visibility="hidden"></rect></g></svg></g></svg>